<svg xmlns="http://www.w3.org/2000/svg" width="375" viewBox="0 0 375 375" height="375" version="1.0"><defs><clipPath id="a"><path d="M 40 121.613281 L 129.71875 121.613281 L 129.71875 235 L 40 235 Z M 40 121.613281"/></clipPath><clipPath id="b"><path d="M 9.71875 146 L 56 146 L 56 186 L 9.71875 186 Z M 9.71875 146"/></clipPath></defs><path fill="#FFF" d="M-37.5 -37.5H412.5V412.5H-37.5z"/><path fill="#FFF" d="M-37.5 -37.5H412.5V412.5H-37.5z"/><path fill="#FFF" d="M-37.5 -37.5H412.5V412.5H-37.5z"/><g clip-path="url(#a)"><path fill="#4650DD" d="M 129.71875 137.328125 C 129.71875 146.003906 122.65625 153.039062 113.945312 153.039062 C 110.648438 153.039062 107.589844 152.03125 105.058594 150.308594 C 93.53125 157.390625 90.632812 166.414062 89.910156 170.625 C 92.382812 174.648438 93.808594 179.386719 93.808594 184.453125 C 93.808594 191.761719 90.839844 198.378906 86.039062 203.179688 C 86.195312 206.21875 87.460938 211.519531 93.523438 216.558594 C 94.519531 216.433594 95.554688 216.464844 96.59375 216.683594 C 101.554688 217.730469 104.722656 222.582031 103.671875 227.523438 C 102.625 232.464844 97.75 235.621094 92.792969 234.574219 C 87.835938 233.53125 84.667969 228.679688 85.714844 223.738281 C 86.113281 221.867188 87.058594 220.253906 88.347656 219.027344 C 85.867188 212.132812 81.515625 209.292969 79.0625 208.199219 C 75.480469 209.988281 71.4375 210.996094 67.160156 210.996094 C 53.699219 210.996094 42.574219 201.054688 40.769531 188.140625 C 41.613281 188.085938 42.4375 187.894531 43.222656 187.5625 L 56.03125 182.097656 C 57.871094 181.316406 59.292969 179.863281 60.039062 178.011719 C 60.785156 176.164062 60.761719 174.132812 59.972656 172.300781 L 55.035156 160.816406 C 58.675781 158.964844 62.789062 157.910156 67.160156 157.910156 C 70.945312 157.910156 74.546875 158.703125 77.808594 160.121094 C 82.605469 159.144531 92.109375 155.574219 99.050781 142.515625 C 98.480469 140.890625 98.167969 139.148438 98.167969 137.332031 C 98.171875 128.648438 105.234375 121.613281 113.945312 121.613281 C 122.65625 121.613281 129.71875 128.648438 129.71875 137.328125 Z M 129.71875 137.328125"/></g><g clip-path="url(#b)"><path fill="#FFE059" d="M 55.5 174.207031 C 56.070312 175.53125 55.453125 177.070312 54.121094 177.640625 L 41.3125 183.101562 C 39.980469 183.667969 38.4375 183.054688 37.867188 181.726562 L 32.382812 168.964844 C 31.8125 167.640625 32.429688 166.101562 33.761719 165.53125 L 46.570312 160.070312 C 47.902344 159.503906 49.445312 160.117188 50.015625 161.445312 Z M 39.734375 146.96875 C 39.464844 146.339844 38.734375 146.046875 38.101562 146.316406 L 32.027344 148.90625 C 31.394531 149.175781 31.101562 149.90625 31.375 150.535156 L 33.976562 156.582031 C 34.246094 157.214844 34.976562 157.503906 35.609375 157.234375 L 41.679688 154.644531 C 42.3125 154.375 42.605469 153.648438 42.335938 153.015625 Z M 28.851562 176.1875 C 28.609375 175.625 27.953125 175.363281 27.386719 175.605469 L 21.945312 177.921875 C 21.382812 178.164062 21.117188 178.816406 21.359375 179.378906 L 23.6875 184.800781 C 23.929688 185.363281 24.585938 185.625 25.148438 185.382812 L 30.589844 183.066406 C 31.15625 182.824219 31.417969 182.171875 31.175781 181.609375 Z M 23.347656 155.515625 C 22.921875 154.523438 21.765625 154.0625 20.765625 154.488281 L 11.175781 158.578125 C 10.175781 159.003906 9.714844 160.152344 10.140625 161.144531 L 14.25 170.703125 C 14.675781 171.695312 15.832031 172.15625 16.828125 171.734375 L 26.421875 167.640625 C 27.421875 167.21875 27.882812 166.066406 27.457031 165.074219 Z M 23.347656 155.515625"/></g><g><g><g><path d="M 13.441406 0 L 13.441406 -22.542969 L 20.457031 -22.542969 L 20.457031 -28.140625 L 0.789062 -28.140625 L 0.789062 -22.542969 L 7.804688 -22.542969 L 7.804688 0 Z M 13.441406 0" transform="translate(153.234 167.075)"/></g></g></g><g><g><g><path d="M 17.183594 0 L 23.570312 0 L 17.027344 -11.625 C 25.304688 -14.03125 24.316406 -28.179688 14.265625 -28.179688 L 3.152344 -28.179688 L 3.152344 0 L 8.789062 0 L 8.789062 -10.757812 L 11.507812 -10.757812 Z M 8.789062 -16.238281 L 8.789062 -22.542969 L 13.753906 -22.542969 C 17.578125 -22.542969 17.578125 -16.238281 13.753906 -16.238281 Z M 8.789062 -16.238281" transform="translate(177.433 167.075)"/></g></g></g><g><g><g><path d="M 0.628906 0 L 7.015625 0 L 8.117188 -3.035156 L 17.460938 -3.035156 L 18.601562 0 L 24.949219 0 L 13.085938 -29.203125 L 12.492188 -29.203125 Z M 10.167969 -8.316406 L 12.808594 -15.648438 L 15.371094 -8.316406 Z M 10.167969 -8.316406" transform="translate(204.232 167.075)"/></g></g></g><g><g><g><path d="M 21.085938 -21.636719 L 21.753906 -27.429688 C 20.0625 -28.179688 18.167969 -28.535156 16.199219 -28.535156 C -2.878906 -28.535156 -2.917969 0.078125 16.199219 0.078125 C 18.167969 0.078125 20.652344 -0.394531 22.386719 -1.105469 L 21.636719 -6.9375 C 20.574219 -6.386719 18.640625 -5.675781 16.199219 -5.675781 C 5.042969 -5.675781 5.042969 -22.859375 16.199219 -22.859375 C 18.640625 -22.859375 20.023438 -22.1875 21.085938 -21.636719 Z M 21.085938 -21.636719" transform="translate(232.608 167.075)"/></g></g></g><g><g><g><path d="M 3.152344 0 L 8.789062 0 L 8.789062 -11.035156 L 16.277344 0 L 23.253906 0 L 13.320312 -14.265625 L 22.464844 -28.179688 L 15.882812 -28.179688 L 8.789062 -16.949219 L 8.789062 -28.179688 L 3.152344 -28.179688 Z M 3.152344 0" transform="translate(258.974 167.075)"/></g></g></g><g><g><g><path d="M 17.734375 0 L 17.734375 -5.636719 L 8.789062 -5.636719 L 8.789062 -11.273438 L 16.199219 -11.273438 L 16.199219 -16.90625 L 8.789062 -16.90625 L 8.789062 -22.542969 L 17.261719 -22.542969 L 17.261719 -28.179688 L 3.152344 -28.179688 L 3.152344 0 Z M 17.734375 0" transform="translate(285.419 167.075)"/></g></g></g><g><g><g><path d="M 16.710938 0.394531 C 36.101562 0.394531 36.101562 -28.652344 16.710938 -28.652344 C -2.679688 -28.652344 -2.679688 0.394531 16.710938 0.394531 Z M 16.710938 -5.4375 C 5.4375 -5.4375 5.4375 -22.859375 16.710938 -22.859375 C 27.984375 -22.859375 27.984375 -5.4375 16.710938 -5.4375 Z M 16.710938 -5.4375" transform="translate(214.499 221.825)"/></g></g></g></svg>